<?xml version="1.0" standalone="no"?>
<!DOCTYPE svg PUBLIC "-//W3C//DTD SVG 20010904//EN"
 "http://www.w3.org/TR/2001/REC-SVG-20010904/DTD/svg10.dtd">
<svg version="1.0" xmlns="http://www.w3.org/2000/svg"
 width="5275.000000pt" height="5275.000000pt" viewBox="0 0 5275.000000 5275.000000"
 preserveAspectRatio="xMidYMid meet">
<metadata>
Created by potrace 1.11, written by Peter Selinger 2001-2013
</metadata>
<g transform="translate(0.000000,5275.000000) scale(0.100000,-0.100000)"
fill="#000000" stroke="none">
<path d="M285 29563 c1 -3184 5 -5801 8 -5818 3 -16 8 -73 12 -125 29 -473
103 -940 227 -1425 51 -203 169 -583 207 -670 5 -11 25 -64 45 -117 181 -489
491 -1063 815 -1508 65 -89 215 -283 252 -325 14 -16 74 -85 133 -152 209
-239 564 -576 777 -738 14 -11 80 -61 145 -111 140 -107 382 -270 542 -365
200 -119 423 -236 617 -323 72 -32 138 -62 148 -68 103 -53 702 -264 832 -293
11 -2 70 -17 130 -33 98 -26 256 -64 325 -77 115 -23 298 -56 360 -65 116 -18
133 -20 255 -35 28 -3 64 -8 80 -10 35 -5 151 -16 215 -21 332 -25 954 -24
1190 1 19 2 62 6 95 9 202 20 311 34 390 50 11 2 45 7 75 11 30 4 64 9 75 12
11 2 34 7 50 9 243 43 695 160 897 234 43 16 78 26 78 23 0 -3 6 -1 13 4 6 6
30 16 52 23 22 7 54 18 70 25 17 7 84 34 150 61 388 155 794 371 1150 612 145
97 379 271 428 316 15 14 32 26 37 26 4 0 10 3 12 8 2 4 30 30 63 57 33 28 69
59 81 70 12 11 56 52 99 90 43 39 127 118 186 177 60 59 110 104 112 100 2 -4
3 -371 3 -815 -1 -453 3 -811 8 -814 6 -4 2562 -8 2622 -4 8 1 11 2512 11
8891 l0 8890 -1334 0 c-733 0 -1333 -3 -1334 -7 0 -5 -1 -2553 -3 -5663 -2
-3110 -6 -5677 -9 -5705 -3 -27 -9 -81 -12 -120 -3 -38 -8 -86 -10 -105 -13
-126 -16 -150 -20 -170 -2 -12 -7 -43 -10 -68 -3 -26 -7 -54 -9 -62 -3 -8 -7
-37 -11 -65 -3 -27 -10 -66 -15 -85 -5 -19 -11 -48 -13 -65 -3 -16 -10 -50
-15 -75 -6 -25 -13 -56 -15 -70 -25 -135 -141 -503 -232 -735 -39 -101 -233
-507 -265 -555 -5 -8 -35 -57 -65 -108 -93 -155 -287 -431 -350 -498 -11 -12
-31 -36 -44 -54 -107 -139 -406 -430 -591 -575 -47 -36 -93 -73 -102 -80 -46
-38 -275 -189 -374 -248 -189 -111 -455 -239 -619 -297 -33 -12 -67 -25 -76
-30 -54 -29 -499 -152 -639 -176 -25 -4 -47 -8 -50 -9 -12 -3 -89 -15 -125
-20 -23 -3 -50 -7 -60 -9 -11 -2 -49 -7 -85 -11 -36 -4 -73 -9 -83 -11 -126
-24 -719 -24 -932 0 -16 2 -57 7 -90 10 -33 4 -71 9 -85 11 -14 2 -47 6 -73
10 -27 4 -59 8 -70 11 -12 2 -58 11 -102 19 -66 12 -189 40 -265 59 -8 3 -35
9 -60 15 -51 11 -294 87 -325 101 -11 5 -81 32 -155 61 -178 70 -461 213 -638
324 -914 572 -1559 1479 -1859 2615 -29 111 -32 125 -39 165 -3 17 -12 55 -19
85 -8 30 -17 78 -21 105 -3 28 -8 53 -10 56 -6 10 -36 216 -49 334 -4 33 -8
71 -10 85 -2 14 -7 59 -10 100 -3 41 -9 107 -12 145 -3 39 -7 2574 -9 5635 -2
3061 -3 5602 -4 5648 l0 82 -1333 0 -1334 0 2 -5787z"/>
<path d="M16339 35333 c-4 -112 0 -17755 4 -17760 5 -4 2370 -8 2515 -4 l22 1
0 805 c0 443 1 805 3 805 2 0 48 -43 102 -96 131 -125 325 -297 450 -396 55
-44 109 -88 120 -97 41 -34 234 -171 335 -238 632 -421 1347 -734 2073 -908
138 -32 405 -87 497 -101 25 -3 52 -8 60 -9 8 -1 40 -6 70 -10 54 -7 67 -8
145 -19 22 -3 69 -8 105 -11 36 -4 81 -8 100 -10 246 -26 844 -26 1150 0 87 7
177 17 202 21 15 2 49 6 75 9 51 5 181 22 223 30 276 47 390 71 590 120 96 24
229 60 295 80 66 19 127 37 135 40 44 12 263 89 390 138 243 92 586 252 810
376 30 17 77 42 105 57 27 15 97 56 155 92 495 305 871 601 1260 992 210 210
237 239 350 371 99 116 106 124 183 222 40 51 74 94 78 97 11 10 230 321 276
393 63 98 203 327 203 332 0 2 23 44 51 92 198 343 411 846 544 1284 30 99 57
190 59 202 2 12 11 47 20 77 18 62 72 297 81 350 3 19 8 42 10 50 5 19 42 230
50 290 3 25 8 56 10 70 2 14 6 48 10 75 3 28 7 61 9 75 5 26 16 139 21 200 2
19 7 87 11 150 16 212 8 985 -11 1060 -2 8 -6 50 -10 92 -3 42 -7 85 -9 95 -2
10 -7 45 -10 78 -4 33 -9 71 -11 85 -2 14 -9 57 -15 95 -21 136 -27 170 -51
290 -11 55 -22 111 -25 125 -78 383 -261 942 -425 1298 -16 35 -29 65 -29 68
0 9 -136 284 -188 379 -94 173 -113 207 -185 325 -190 312 -458 680 -667 914
-274 309 -496 525 -782 764 -286 238 -531 410 -898 633 -168 101 -550 295
-742 375 -35 14 -76 32 -93 39 -32 14 -113 46 -230 90 -261 98 -643 210 -905
265 -58 12 -118 25 -135 30 -16 5 -48 11 -70 14 -22 3 -50 7 -61 10 -12 2 -39
7 -60 11 -22 3 -50 8 -64 10 -61 10 -321 45 -380 50 -36 4 -81 8 -100 10 -34
4 -167 13 -280 21 -71 4 -618 4 -690 0 -192 -12 -329 -23 -375 -30 -16 -3 -57
-8 -90 -11 -112 -12 -426 -65 -568 -96 -887 -192 -1702 -559 -2437 -1095 -74
-54 -144 -106 -155 -115 -266 -219 -380 -319 -542 -476 -47 -46 -88 -83 -91
-83 -4 0 -7 1454 -7 3230 l0 3230 -1282 0 c-1215 0 -1283 -1 -1284 -17z m7256
-6827 c61 -3 126 -8 145 -10 19 -3 64 -8 100 -11 36 -4 72 -8 80 -10 8 -1 35
-6 60 -9 38 -6 253 -46 327 -60 123 -25 548 -157 656 -205 23 -10 87 -38 142
-62 216 -93 490 -245 695 -383 58 -39 107 -73 110 -76 3 -3 43 -34 90 -69 474
-358 879 -823 1179 -1350 80 -140 186 -352 223 -446 11 -27 26 -63 33 -80 39
-86 164 -455 180 -530 2 -11 17 -78 34 -150 35 -153 44 -197 76 -405 27 -173
39 -374 39 -630 0 -190 -9 -405 -18 -457 -3 -16 -10 -73 -22 -178 -2 -16 -6
-41 -9 -55 -3 -14 -8 -43 -10 -65 -6 -46 -41 -221 -57 -280 -5 -22 -12 -51
-14 -65 -3 -14 -9 -36 -14 -50 -5 -14 -17 -54 -26 -90 -23 -93 -88 -286 -144
-425 -224 -562 -541 -1052 -954 -1475 -123 -126 -212 -211 -295 -280 -29 -25
-58 -50 -65 -55 -6 -6 -33 -28 -61 -50 -27 -22 -52 -43 -55 -46 -3 -3 -66 -49
-140 -102 -225 -160 -519 -330 -740 -427 -52 -23 -113 -50 -135 -60 -189 -84
-539 -192 -800 -246 -134 -27 -252 -46 -376 -59 -30 -4 -67 -8 -84 -10 -177
-23 -701 -23 -848 0 -12 2 -52 6 -89 10 -65 6 -96 10 -148 20 -14 3 -44 7 -67
10 -213 26 -716 164 -928 255 -516 222 -843 419 -1230 741 -150 125 -453 432
-547 554 -12 17 -27 35 -33 41 -6 6 -37 47 -70 90 -33 43 -62 81 -65 84 -12
11 -152 222 -214 323 -91 148 -213 384 -281 547 -31 74 -63 149 -70 165 -46
105 -182 565 -198 670 -3 17 -10 50 -15 75 -6 25 -13 63 -16 85 -4 22 -11 65
-16 95 -5 30 -11 73 -14 95 -3 22 -8 60 -11 84 -33 239 -38 720 -10 979 17
152 23 197 31 247 3 17 7 41 9 55 17 129 90 427 160 660 17 57 97 275 118 320
8 19 30 69 47 110 81 191 260 512 395 710 62 90 198 272 229 305 10 11 30 35
45 54 73 95 365 392 481 491 36 30 67 57 70 60 3 3 25 21 50 41 284 225 547
393 850 541 94 46 330 149 350 154 3 0 19 6 35 13 209 87 708 213 965 245 163
20 213 25 330 32 58 3 106 6 107 7 4 4 349 -1 448 -7z"/>
<path d="M37688 30775 c-2 -2 -56 -6 -121 -10 -65 -4 -134 -8 -155 -10 -20 -2
-68 -6 -107 -9 -63 -6 -89 -9 -175 -21 -14 -2 -49 -7 -79 -10 -30 -4 -61 -8
-70 -10 -9 -1 -41 -6 -71 -11 -30 -4 -57 -8 -60 -9 -3 -1 -25 -5 -50 -9 -309
-56 -541 -113 -845 -207 -177 -55 -492 -173 -603 -224 -29 -14 -54 -25 -56
-25 -13 0 -371 -175 -476 -233 -140 -76 -215 -120 -360 -211 -186 -115 -482
-325 -605 -427 -11 -9 -63 -52 -115 -95 -52 -43 -113 -94 -135 -115 -22 -20
-69 -62 -105 -94 -96 -87 -323 -316 -420 -425 -47 -52 -88 -97 -91 -100 -21
-19 -199 -239 -283 -350 -460 -607 -796 -1245 -1037 -1971 -37 -113 -70 -217
-73 -230 -3 -13 -19 -73 -36 -134 -17 -60 -32 -119 -34 -130 -2 -11 -11 -47
-19 -80 -9 -33 -18 -71 -21 -85 -29 -144 -55 -281 -60 -305 -3 -16 -7 -41 -10
-55 -4 -23 -38 -267 -51 -370 -3 -25 -8 -81 -11 -125 -3 -44 -7 -91 -9 -104
-24 -148 -24 -870 0 -1096 2 -22 7 -71 10 -110 17 -216 75 -603 116 -785 6
-25 13 -56 15 -70 33 -169 192 -730 215 -754 5 -6 9 -16 9 -24 0 -27 116 -324
212 -542 58 -132 222 -450 313 -605 83 -142 268 -429 325 -505 14 -19 60 -80
100 -135 41 -55 77 -102 80 -105 3 -3 23 -27 45 -55 70 -87 179 -216 250 -294
78 -87 372 -379 467 -465 574 -518 1262 -945 1993 -1236 142 -56 429 -161 485
-176 24 -6 109 -31 185 -54 211 -63 593 -149 820 -185 350 -54 555 -75 905
-90 388 -17 859 -1 1180 40 19 2 60 7 90 10 85 9 364 54 470 75 52 10 106 21
120 24 14 2 57 12 95 21 39 9 80 19 93 21 44 9 289 75 402 110 270 83 523 178
800 301 140 63 461 225 502 254 14 11 29 19 33 19 25 0 534 328 631 407 23 18
46 33 52 33 6 0 12 4 14 8 2 5 35 32 73 62 332 255 684 582 952 885 99 112
111 126 171 200 31 39 60 72 63 75 3 3 38 48 79 100 40 52 77 100 82 106 8 11
-50 57 -323 257 -13 9 -126 92 -250 185 -263 195 -373 276 -582 429 -83 62
-156 116 -162 121 -5 4 -37 28 -70 52 -33 24 -145 107 -250 185 -104 77 -195
144 -201 148 -7 4 -37 -27 -74 -75 -156 -200 -265 -323 -465 -523 -132 -133
-204 -199 -336 -309 -80 -67 -282 -215 -387 -283 -360 -234 -705 -392 -1167
-533 -29 -9 -185 -49 -215 -55 -213 -45 -408 -77 -545 -91 -38 -3 -78 -8 -87
-9 -117 -22 -783 -22 -897 0 -9 1 -45 6 -81 10 -80 8 -106 12 -145 19 -16 2
-73 12 -125 21 -284 47 -647 155 -930 276 -99 42 -404 197 -488 249 -46 27
-87 50 -92 50 -5 0 -10 3 -12 8 -1 4 -48 37 -103 74 -250 168 -442 325 -650
533 -80 81 -222 236 -256 280 -13 17 -26 32 -29 35 -5 4 -123 158 -195 255
-41 55 -203 313 -245 390 -89 164 -129 246 -210 429 -50 112 -158 411 -175
482 -3 10 -20 77 -39 148 -20 70 -37 140 -40 155 -2 14 -9 46 -15 71 -5 25
-13 61 -16 80 -3 19 -8 49 -11 65 l-5 30 5268 0 5268 0 -1 600 c0 537 -5 744
-19 863 -2 20 -7 73 -10 117 -3 44 -7 91 -10 105 -2 14 -7 50 -10 80 -3 30 -7
66 -9 80 -3 14 -7 48 -11 75 -6 48 -19 139 -30 198 -3 15 -10 55 -15 90 -87
502 -289 1173 -476 1575 -19 41 -34 76 -34 78 0 3 -36 78 -79 167 -225 461
-502 894 -815 1272 -50 61 -95 115 -101 121 -276 310 -528 553 -784 757 -47
38 -93 74 -101 81 -179 143 -389 282 -742 492 -148 89 -476 246 -696 335 -70
28 -140 57 -157 64 -209 90 -807 258 -1065 300 -19 3 -66 12 -105 20 -38 7
-92 16 -120 20 -27 3 -75 10 -105 15 -30 5 -76 11 -102 14 -27 3 -67 8 -90 11
-24 3 -70 8 -103 10 -33 3 -80 8 -105 10 -140 13 -257 17 -547 20 -177 1 -324
1 -325 0z m592 -2248 c19 -3 62 -8 95 -12 33 -3 71 -8 85 -10 114 -16 188 -29
265 -45 50 -10 104 -21 120 -24 17 -3 55 -13 85 -21 30 -9 60 -17 65 -19 73
-20 115 -33 204 -63 58 -19 120 -41 136 -48 17 -7 62 -25 100 -40 271 -104
680 -344 935 -549 260 -209 551 -505 697 -710 12 -17 26 -36 31 -42 43 -49
232 -336 255 -384 4 -8 21 -37 38 -65 44 -74 182 -356 224 -460 20 -49 42
-103 50 -120 7 -16 17 -43 21 -60 4 -16 10 -34 14 -40 21 -29 160 -513 160
-557 0 -17 -194 -18 -3945 -18 l-3945 0 6 28 c93 414 300 931 519 1292 124
205 315 471 435 605 311 348 607 597 973 818 143 86 417 221 572 281 66 26
130 51 143 56 34 14 362 110 397 116 16 3 46 9 65 14 48 12 252 48 320 55 30
4 66 8 80 10 14 2 66 7 115 10 50 4 92 9 94 11 5 5 552 -3 591 -9z"/>
<path d="M51337 30623 c-1 0 -53 -4 -116 -7 -63 -4 -117 -8 -120 -10 -3 -2
-44 -7 -91 -11 -46 -3 -87 -8 -90 -10 -3 -1 -27 -6 -55 -9 -67 -9 -228 -42
-350 -73 -409 -102 -820 -295 -1155 -542 -64 -47 -220 -172 -256 -206 -181
-167 -334 -335 -466 -510 -89 -119 -188 -263 -188 -274 0 -5 -6 -14 -14 -20
-11 -9 -13 115 -13 774 0 432 -3 788 -7 793 -4 4 -577 7 -1272 7 l-1264 0 0
-6477 c0 -5175 3 -6478 13 -6479 6 0 582 -1 1280 -2 1119 -2 1268 0 1271 13 3
8 5 1716 5 3795 1 2079 3 3803 5 3830 13 165 18 223 21 245 2 14 9 63 15 110
31 233 108 552 183 760 123 338 300 662 477 875 14 17 41 51 60 75 63 81 233
250 333 333 445 368 965 576 1557 623 52 4 368 8 703 8 l607 1 0 1195 0 1195
-536 0 c-295 0 -536 -1 -537 -2z"/>
</g>
</svg>
